# xmcd
#
# Track frame offsets:
#	182
#	18505
#	39100
#	57965
#
# Disc length: 1025 seconds
#
# Revision: 5
# Processed by: cddbd v1.5.1PL0 Copyright (c) Steve Scherf et al.
# Submitted via: audiograbber 1.83.01
#
DISCID=2603ff04
DTITLE=Curiosity Killed The Cat - Name And Number
DYEAR=1989
DGENRE=Pop
TTITLE0=Name and number
TTITLE1=Name and number (Hanging On Person To Person)
TTITLE2=Keep on trying
TTITLE3=Name and number (Jazzy Dub Version)
EXTD=
EXTT0=
EXTT1=
EXTT2=
EXTT3=
PLAYORDER=
